<svg version="1.1" id="Layer_1" xmlns="http://www.w3.org/2000/svg" xmlns:xlink="http://www.w3.org/1999/xlink" x="0px" y="0px"
	 width="100%" viewBox="0 0 1000 1000" enable-background="new 0 0 1000 1000" xml:space="preserve">
<path fill="#000000" opacity="1.000000" stroke="none" 
	d="
M1001.000000,822.000000 
	C1001.000000,881.649231 1001.000000,941.298523 1001.000000,1000.973877 
	C667.781372,1000.973877 334.562714,1000.973877 1.000000,1000.973877 
	C1.000000,915.306763 1.000000,829.613098 1.348719,743.154907 
	C2.920313,746.964478 4.052073,751.565369 5.382068,756.108154 
	C10.764398,774.492493 21.886837,788.878113 36.782661,801.024719 
	C37.319168,801.537598 37.703964,801.741699 38.049896,801.939880 
	C38.011032,801.933899 38.058441,801.871155 38.102783,802.213379 
	C44.371967,807.173096 50.596809,811.790649 56.501671,816.647339 
	C51.505997,821.111084 46.735634,825.239075 42.238327,829.645813 
	C41.386993,830.479980 40.923542,832.818604 41.473854,833.781311 
	C43.765594,837.790466 46.513168,841.539062 49.112434,845.411438 
	C50.266998,844.733582 51.110889,844.238159 52.208244,843.983643 
	C55.129684,848.200867 57.797661,852.177185 60.684879,856.480225 
	C70.161980,848.293091 81.117470,846.126404 92.665131,848.209534 
	C99.949402,849.523682 106.977318,852.342773 114.058319,854.674805 
	C120.516212,856.801575 126.768715,859.648254 133.325027,861.361572 
	C152.185211,866.290405 168.813980,860.204651 179.775650,844.632507 
	C180.862274,843.088867 181.890533,840.415955 181.286392,838.952026 
	C178.064606,831.145508 174.314621,823.557007 170.086227,814.472717 
	C168.517761,816.645325 167.459793,818.110779 166.201416,819.290161 
	C163.671799,814.217651 161.342621,809.431152 158.898560,804.408630 
	C152.948898,811.066895 145.814529,813.698303 137.977859,814.491333 
	C141.941025,810.959778 145.993774,807.898499 149.810379,804.566772 
	C159.991623,795.678711 166.500763,784.211670 172.328918,772.606873 
	C173.729950,787.119873 178.532684,799.245850 191.415466,807.243591 
	C192.017090,807.716797 192.498154,807.904907 192.971756,808.055664 
	C192.964294,808.018433 192.900970,808.060425 192.798248,808.408325 
	C197.029419,815.114746 203.353760,818.763611 210.442230,820.912354 
	C229.202698,826.599121 248.135208,826.617493 266.979736,821.357361 
	C282.311768,817.077759 290.938599,806.514771 293.788422,791.098206 
	C294.510101,787.194214 294.911346,783.176697 294.938477,779.207825 
	C295.066986,760.413025 295.020935,741.617004 295.011841,722.821411 
	C295.011292,721.718445 294.789062,720.615601 294.634705,719.185608 
	C290.876312,719.185608 287.411377,719.185608 283.827942,718.729980 
	C283.709442,715.006104 283.709442,711.737915 283.709442,708.501160 
	C271.428802,708.501160 259.866394,708.501160 248.385345,708.501160 
	C248.227112,709.140808 248.081390,709.456360 248.080750,709.772095 
	C248.060104,719.761292 248.161484,729.752136 248.013657,739.739258 
	C247.873444,749.212341 248.138046,758.759583 247.033966,768.134033 
	C245.371658,782.248291 234.702194,788.379944 220.937073,783.594055 
	C220.556458,781.396851 219.951523,779.608154 219.918594,777.808899 
	C219.598755,760.331909 219.372162,742.853271 219.127045,725.374939 
	C219.099976,723.444458 219.123413,721.513306 219.123413,719.182617 
	C214.975739,719.182617 211.509155,719.182617 207.943710,718.722046 
	C207.844833,714.997437 207.844833,711.733398 207.844833,708.266785 
	C195.507965,708.266785 183.876068,708.266785 172.121674,707.898193 
	C169.418976,702.359802 167.426224,696.770447 164.109680,692.126465 
	C159.971191,686.331665 154.742279,681.315674 150.007721,675.969116 
	C150.031281,675.974854 150.035629,676.023071 150.041214,675.670715 
	C149.666367,675.055420 149.285950,674.792480 148.643250,674.367859 
	C145.621445,671.319031 142.935898,668.356873 140.090836,665.556702 
	C115.344925,641.201172 76.268600,635.351257 45.913643,652.145264 
	C22.651648,665.014954 8.198997,684.770813 2.994220,711.059082 
	C2.782376,712.129089 1.684876,713.023682 1.000003,714.000000 
	C1.000000,476.374390 1.000000,238.748795 1.000000,1.061601 
	C334.234650,1.061601 667.469299,1.061601 1001.000000,1.061601 
	C1001.000000,240.026779 1001.000000,479.053680 1000.537354,718.614685 
	C994.513733,719.011230 988.952820,718.873657 983.649292,718.408936 
	C986.930176,715.006409 989.953552,711.930969 993.645020,708.176025 
	C978.626953,708.176025 964.998657,708.059326 951.376465,708.295227 
	C949.202881,708.332825 946.578979,709.438354 944.979553,710.927124 
	C937.573792,717.820129 930.456055,725.022583 923.191650,731.639954 
	C923.148193,704.184326 923.148193,677.203003 923.148193,649.914368 
	C918.980591,649.914368 915.515869,649.914368 911.958374,649.466492 
	C911.865601,645.747986 911.865601,642.477295 911.865601,639.101685 
	C899.713013,639.101685 888.155334,639.101685 876.141724,639.101685 
	C876.141724,641.435242 876.145081,643.550598 876.141296,645.665955 
	C876.078796,680.559082 876.015442,715.452148 875.667175,750.116577 
	C874.022827,747.435364 873.047424,744.639038 871.223389,742.603027 
	C867.593262,738.551147 863.496460,734.917358 859.351562,730.895874 
	C858.653992,729.993103 858.267822,729.243958 857.730408,728.626404 
	C838.373962,706.386230 813.887695,700.962097 786.356750,708.101746 
	C767.489380,712.994751 753.126465,724.290100 747.096436,743.532593 
	C741.007996,762.961487 744.045105,787.704468 768.963135,804.875122 
	C769.388062,805.457458 769.765869,805.689392 770.093872,805.912964 
	C770.044067,805.904602 770.085999,805.812744 770.122681,806.158569 
	C788.130249,824.481995 810.189392,827.627380 833.891602,823.368347 
	C853.118958,819.913391 867.008362,808.772583 876.036865,791.951050 
	C876.107300,798.501465 876.107300,804.553345 876.107300,811.171326 
	C880.333923,811.171326 884.083923,811.171326 887.836853,811.624268 
	C887.839783,815.314514 887.839783,818.551941 887.839783,821.674072 
	C900.030457,821.674072 911.423523,821.674072 923.260742,821.674072 
	C923.260742,808.236938 923.260742,795.123047 923.548584,782.153687 
	C931.463013,789.905823 939.054321,797.549438 946.738831,805.098145 
	C948.943176,807.263672 951.416809,809.154968 953.914307,811.475220 
	C955.805786,813.539124 957.765747,815.136475 959.249207,817.094727 
	C962.335083,821.168274 966.202515,822.321533 971.257507,822.117126 
	C981.157104,821.716858 991.084229,821.999817 1001.000000,822.000000 
M351.840118,543.711792 
	C352.233429,543.817505 352.626770,543.923279 352.978485,544.022156 
	C352.978485,544.022156 352.971252,543.980652 352.807159,544.672546 
	C353.566223,545.098511 354.325256,545.524475 355.012390,545.984802 
	C355.012390,545.984802 355.039856,545.909973 355.012085,546.609802 
	C383.033234,571.485046 415.577850,587.680054 451.724182,596.924316 
	C454.090942,597.529663 456.585144,597.636719 459.089874,598.536072 
	C459.516144,598.539368 459.942413,598.542725 460.368683,598.546021 
	C459.905975,598.370789 459.443268,598.195618 458.829437,597.298218 
	C459.182373,595.418579 459.062286,593.269287 459.957428,591.698669 
	C482.197021,552.674988 504.546967,513.714233 526.861145,474.732971 
	C527.788574,473.112854 528.559998,471.403473 529.761475,469.029694 
	C523.211426,469.029694 517.725586,469.029694 512.372498,468.361542 
	C514.288208,465.019409 516.203979,461.677277 518.271362,458.070618 
	C440.388306,458.070618 363.313354,458.070618 285.782898,458.070618 
	C286.401215,459.451111 286.835602,460.488464 287.323456,461.500031 
	C296.040131,479.574585 306.710938,496.428406 320.075653,511.388153 
	C328.919434,521.287354 338.554382,530.479736 348.125732,540.494385 
	C348.469360,540.632324 348.813019,540.770325 349.051300,540.922363 
	C349.051300,540.922363 349.065704,540.817078 349.219482,541.485291 
	C349.797150,541.701111 350.374847,541.916870 350.954773,542.049988 
	C350.954773,542.049988 350.875580,542.073914 350.802368,542.759949 
	C351.195007,542.860535 351.587616,542.961121 351.996552,543.001709 
	C351.996552,543.001709 351.940521,543.028625 351.840118,543.711792 
M367.067078,804.907959 
	C367.067078,804.907959 367.097412,804.711731 367.305634,805.369446 
	C367.865814,805.600830 368.425995,805.832275 368.992828,806.000732 
	C368.992828,806.000732 368.937744,806.031860 368.786469,806.726379 
	C387.108307,827.099670 428.692627,831.772827 444.787964,815.249451 
	C444.209045,813.892700 443.626740,812.527954 443.930878,811.022156 
	C446.331573,811.067749 448.732300,811.113342 451.141235,812.059326 
	C451.141235,815.307739 451.141235,818.556152 451.141235,821.582520 
	C463.494507,821.582520 475.048370,821.582520 487.202576,821.582520 
	C487.202576,808.195251 487.202576,795.229248 487.851990,782.731323 
	C491.737213,786.607971 495.575958,790.532654 499.518646,794.349915 
	C505.348969,799.994751 511.252991,805.563477 517.406189,811.734436 
	C519.867493,814.198486 522.251099,816.747803 524.822998,819.090515 
	C526.100159,820.253906 527.711182,821.846497 529.191284,821.868042 
	C543.535400,822.076965 557.883728,821.993530 572.742126,821.993530 
	C568.613892,817.695923 564.992432,813.925903 560.853149,809.670837 
	C547.172180,795.950806 533.491211,782.230774 520.290833,767.951721 
	C536.136719,751.975220 551.982544,735.998779 568.845276,718.997070 
	C560.439026,718.997070 553.646484,718.997070 547.106689,718.362427 
	C550.173035,715.275879 553.239319,712.189331 557.217712,708.184753 
	C541.403625,708.184753 527.030640,708.117554 512.660767,708.293884 
	C511.301147,708.310669 509.759766,709.647522 508.643219,710.724487 
	C501.373749,717.736450 494.198334,724.846008 486.923126,730.997620 
	C486.923126,704.115295 486.923126,677.233032 486.923126,649.888000 
	C482.617493,649.888000 478.993439,649.888000 475.199036,648.984741 
	C475.199036,645.718201 475.199036,642.451599 475.199036,639.167358 
	C463.112915,639.167358 451.575134,639.167358 439.790222,639.167358 
	C439.790222,641.589294 439.795471,643.726013 439.789429,645.862732 
	C439.717438,671.286926 439.643829,696.711182 438.915527,721.854126 
	C436.550629,721.076233 434.185730,720.298340 431.908997,718.795715 
	C432.391052,717.443542 432.873108,716.091431 433.475830,714.400696 
	C418.851349,705.667786 403.334381,703.108765 387.203491,706.660889 
	C366.769470,711.160461 352.824646,723.871399 344.482208,742.385864 
	C344.482208,734.754456 344.482208,727.122986 344.482208,719.181519 
	C340.018158,719.181519 336.583191,719.181519 332.992188,718.249512 
	C332.992188,714.987488 332.992188,711.725525 332.992188,708.513550 
	C320.833740,708.513550 309.308105,708.513550 297.734283,708.513550 
	C297.734283,742.833069 297.734283,776.812988 297.734283,811.170532 
	C301.704315,811.170532 305.349823,811.170532 309.000366,812.073364 
	C309.000366,815.315979 309.000366,818.558594 309.000366,821.712036 
	C321.145691,821.712036 332.548401,821.712036 344.361084,821.712036 
	C344.361084,815.976562 344.301727,810.524231 344.374237,805.073608 
	C344.499847,795.633484 344.707153,786.194336 345.148560,777.453247 
	C349.430511,788.474548 357.091309,796.804382 366.416473,804.414673 
	C366.699524,804.577576 366.982574,804.740479 367.067078,804.907959 
M676.160767,220.335449 
	C675.789429,220.195221 675.418030,220.054993 675.016418,219.984558 
	C675.016418,219.984558 675.090942,219.969376 675.289001,219.302536 
	C674.473999,218.551758 673.658997,217.800964 672.946411,217.034012 
	C672.946411,217.034012 672.943481,217.137650 672.776184,216.450790 
	C672.362061,216.273743 671.947876,216.096695 671.187073,215.409180 
	C638.575745,177.887756 598.676575,152.012268 550.329590,139.498154 
	C546.862854,138.600845 545.432007,139.465668 543.729431,142.382523 
	C525.235107,174.066360 506.586029,205.659851 487.980682,237.278885 
	C482.704407,246.245667 477.433136,255.215393 471.644775,265.059204 
	C478.324554,265.059204 484.071381,265.059204 489.566376,265.674500 
	C487.664612,268.917847 485.762848,272.161224 483.606171,275.839294 
	C560.511353,275.839294 636.657776,275.839294 713.277588,275.839294 
	C712.821594,274.673798 712.645142,273.871796 712.232361,273.219269 
	C703.177368,258.904938 694.166382,244.561646 684.951538,230.350601 
	C683.393677,227.948090 680.936462,226.128769 678.971375,224.009277 
	C678.971375,224.009277 678.941040,224.085953 679.005005,223.440231 
	C678.647034,223.307404 678.289124,223.174576 677.996887,223.005524 
	C677.996887,223.005524 677.956482,223.068787 678.086243,222.382660 
	C677.392639,221.905380 676.698975,221.428085 675.994446,221.004181 
	C675.994446,221.004181 676.048767,221.000000 676.160767,220.335449 
M335.147278,657.417358 
	C334.541901,656.425110 333.979279,655.403625 333.324432,654.445190 
	C327.639038,646.123779 317.982483,642.798950 308.830475,645.991882 
	C299.532532,649.235718 293.921631,658.136780 294.880157,668.284912 
	C295.703827,677.005249 301.252747,682.174805 308.736053,686.729553 
	C309.671783,688.092834 310.477539,689.571045 311.564850,690.800293 
	C317.483337,697.491150 326.520477,699.714722 334.679230,696.581421 
	C342.798889,693.462952 348.132355,685.653015 348.132202,676.881714 
	C348.132050,668.144714 343.410034,661.083801 335.147278,657.417358 
M625.225098,747.897339 
	C625.225098,744.626953 625.225098,741.356567 625.225098,738.044312 
	C603.478455,738.044312 582.295715,738.044312 561.037292,738.044312 
	C561.037292,748.211914 561.037292,758.105774 561.037292,768.154907 
	C564.880371,768.330750 568.487976,768.495789 572.118896,769.491699 
	C572.118896,772.602844 572.118896,775.713928 572.118896,778.912292 
	C593.984985,778.912292 615.190857,778.912292 636.544678,778.912292 
	C636.544678,768.800415 636.544678,759.057190 636.544678,748.790955 
	C632.640808,748.790955 629.014465,748.790955 625.225098,747.897339 
M681.197449,812.063965 
	C681.197449,815.307922 681.197449,818.551880 681.197449,821.676758 
	C694.233154,821.676758 706.466064,821.676758 719.124878,821.676758 
	C719.124878,777.685242 719.124878,734.015808 719.124878,689.857727 
	C732.270569,689.857727 744.991516,689.857727 757.787598,689.857727 
	C757.787598,678.656189 757.787598,667.949585 757.787598,656.923462 
	C753.988098,656.923462 750.518982,656.923462 746.861267,656.027466 
	C746.861267,652.756104 746.861267,649.484680 746.861267,646.194763 
	C707.798462,646.194763 669.332947,646.194763 630.827637,646.194763 
	C630.827637,657.237671 630.827637,667.976807 630.827637,679.132690 
	C634.746826,679.132690 638.390930,679.132690 642.038330,680.037964 
	C642.038330,683.269836 642.038330,686.501709 642.038330,689.959167 
	C651.763428,689.959167 660.701843,689.959167 669.831482,690.883972 
	C669.831482,730.810364 669.831482,770.736694 669.831482,811.165833 
	C673.946777,811.165833 677.574097,811.165833 681.197449,812.063965 
M283.192139,430.898041 
	C284.228241,434.382538 285.264374,437.867065 286.278687,441.278259 
	C335.310486,441.278259 384.013611,441.278259 433.535583,441.278259 
	C394.041382,375.738007 354.919159,310.815125 315.278290,245.031479 
	C314.292969,246.440826 313.631744,247.386597 312.382538,247.928284 
	C309.607056,243.339203 306.831573,238.750107 303.717896,233.601852 
	C263.996582,295.300568 255.264450,360.469421 274.497711,430.162354 
	C277.783508,430.162354 280.431885,430.162354 283.192139,430.898041 
M598.331421,404.025177 
	C595.584045,399.263702 592.836731,394.502258 589.813599,389.262909 
	C551.012878,456.919281 512.716919,523.695435 474.114380,591.006226 
	C480.391815,591.416687 485.851868,591.773682 491.108734,592.816528 
	C489.428467,595.933899 487.748169,599.051270 485.742462,602.772461 
	C560.982361,607.246399 623.677002,582.520386 675.282471,528.939270 
	C650.554138,486.062225 626.118286,443.692352 601.546753,401.087219 
	C600.543457,402.368866 599.734985,403.401703 598.331421,404.025177 
M716.430786,303.479431 
	C716.073181,302.201996 715.515198,300.943512 715.392273,299.643890 
	C714.829895,293.696198 711.732422,292.287781 705.845581,292.326843 
	C661.376587,292.621948 616.904663,292.488007 572.433655,292.488007 
	C570.663696,292.488007 568.893677,292.487976 566.140991,292.487976 
	C605.084717,360.051941 643.556763,426.797485 682.130310,493.719208 
	C683.380554,492.371948 684.161987,491.529907 685.494080,491.147400 
	C688.145752,495.696930 690.797485,500.246429 693.493530,504.872070 
	C731.671265,465.678711 748.502747,355.587311 724.276550,304.047394 
	C721.888855,304.047394 719.405640,304.047394 716.430786,303.479431 
M511.006836,143.322617 
	C512.763000,140.223999 514.519226,137.125381 516.365784,133.867203 
	C454.714203,122.411453 353.520233,162.725235 322.436401,210.798492 
	C347.413147,252.293320 372.406555,293.815826 397.550873,335.589050 
	C398.561615,334.420502 399.299622,333.567261 400.603455,333.135376 
	C403.445038,337.749939 406.286621,342.364532 409.388397,347.401611 
	C449.140472,279.720673 488.545837,212.630005 528.271057,144.994751 
	C521.839050,144.636856 516.366455,144.332352 511.006836,143.322617 
z"/>
<path fill="#FEFEFD" opacity="1.000000" stroke="none" 
	d="
M51.954781,843.742737 
	C51.110889,844.238159 50.266998,844.733582 49.112434,845.411438 
	C46.513168,841.539062 43.765594,837.790466 41.473854,833.781311 
	C40.923542,832.818604 41.386993,830.479980 42.238327,829.645813 
	C46.735634,825.239075 51.505997,821.111084 56.755363,816.573303 
	C60.103760,815.033325 62.878483,813.806458 64.742149,812.982483 
	C56.137409,809.399414 47.097923,805.635254 38.058437,801.871155 
	C38.058441,801.871155 38.011032,801.933899 38.029770,801.556885 
	C37.575985,801.025208 37.103466,800.870605 36.630951,800.715942 
	C21.886837,788.878113 10.764398,774.492493 5.382068,756.108154 
	C4.052073,751.565369 2.920313,746.964478 1.348719,742.695190 
	C1.000000,733.645752 1.000000,724.291565 1.000003,714.468628 
	C1.684876,713.023682 2.782376,712.129089 2.994220,711.059082 
	C8.198997,684.770813 22.651648,665.014954 45.913643,652.145264 
	C76.268600,635.351257 115.344925,641.201172 140.090836,665.556702 
	C142.935898,668.356873 145.621445,671.319031 148.647308,674.734863 
	C149.287659,675.516785 149.661636,675.769958 150.035629,676.023071 
	C150.035629,676.023071 150.031281,675.974854 149.990921,676.325928 
	C163.652603,696.152832 168.407608,717.855164 164.997696,741.183838 
	C160.242630,773.715027 143.366562,797.150330 112.062431,809.189880 
	C111.112671,809.555176 110.223709,810.078552 109.306419,810.528259 
	C109.317345,810.998474 109.328270,811.468628 109.339188,811.938782 
	C118.879395,812.905334 128.419586,813.871826 137.959793,814.838318 
	C145.814529,813.698303 152.948898,811.066895 158.898560,804.408630 
	C161.342621,809.431152 163.671799,814.217651 166.272308,819.662476 
	C167.495346,822.441223 168.786484,824.484192 169.293808,826.706116 
	C169.716980,828.559448 169.956818,831.116638 169.017303,832.515320 
	C160.818466,844.721252 149.549835,851.765381 134.514496,852.000793 
	C124.645767,852.155273 115.637154,848.822205 106.588539,845.398987 
	C98.845924,842.469849 91.073486,839.299683 83.027489,837.570190 
	C72.045631,835.209717 61.194771,836.088806 51.954781,843.742737 
M115.528053,695.436523 
	C103.692276,676.082397 62.326130,673.713074 48.960220,700.509338 
	C40.168922,718.134338 40.202663,735.992188 47.300823,753.980164 
	C49.826431,760.380432 53.891327,765.889404 60.569313,769.879639 
	C66.510017,771.818726 72.331612,774.775513 78.415924,775.487610 
	C91.581001,777.028442 104.070915,774.800415 113.469559,764.149048 
	C128.316162,747.323547 129.365112,714.034119 115.528053,695.436523 
z"/>
<path fill="#030201" opacity="1.000000" stroke="none" 
	d="
M1001.000000,725.000000 
	C1001.000000,753.687561 1001.000000,782.375122 1000.672729,811.635132 
	C999.609497,811.676880 998.873474,811.146240 997.953125,810.359131 
	C984.072937,796.378418 970.377136,782.654114 956.755371,768.585449 
	C971.027283,753.853577 985.220825,739.461731 999.454468,725.109680 
	C999.728149,724.833618 1000.474304,725.026123 1001.000000,725.000000 
z"/>
<path fill="#EA6502" opacity="1.000000" stroke="none" 
	d="
M1001.000000,724.571533 
	C1000.474304,725.026123 999.728149,724.833618 999.454468,725.109680 
	C985.220825,739.461731 971.027283,753.853577 956.466553,768.479492 
	C952.260742,765.129333 948.417786,761.540710 944.324341,757.718201 
	C957.814331,744.257690 970.603088,731.496887 983.391846,718.736084 
	C988.952820,718.873657 994.513733,719.011230 1000.537354,719.074402 
	C1001.000000,720.714355 1001.000000,722.428711 1001.000000,724.571533 
z"/>
<path fill="#ED6500" opacity="1.000000" stroke="none" 
	d="
M998.137451,810.615540 
	C998.873474,811.146240 999.609497,811.676880 1000.672729,812.103760 
	C1001.000000,815.030579 1001.000000,818.061218 1001.000000,821.545898 
	C991.084229,821.999817 981.157104,821.716858 971.257507,822.117126 
	C966.202515,822.321533 962.335083,821.168274 959.249207,817.094727 
	C957.765747,815.136475 955.805786,813.539124 954.395630,811.403687 
	C969.198914,810.891296 983.668152,810.753418 998.137451,810.615540 
z"/>
<path fill="#FEFEFE" opacity="1.000000" stroke="none" 
	d="
M400.037628,332.714020 
	C399.299622,333.567261 398.561615,334.420502 397.550873,335.589050 
	C372.406555,293.815826 347.413147,252.293320 322.436401,210.798492 
	C353.520233,162.725235 454.714203,122.411453 516.365784,133.867203 
	C514.519226,137.125381 512.763000,140.223999 510.661804,143.848007 
	C486.257660,185.348938 462.173431,226.309769 438.149506,267.305939 
	C425.391541,289.076996 412.738220,310.909363 400.037628,332.714020 
z"/>
<path fill="#FFFFFE" opacity="1.000000" stroke="none" 
	d="
M347.835114,539.988586 
	C338.554382,530.479736 328.919434,521.287354 320.075653,511.388153 
	C306.710938,496.428406 296.040131,479.574585 287.323456,461.500031 
	C286.835602,460.488464 286.401215,459.451111 285.782898,458.070618 
	C363.313354,458.070618 440.388306,458.070618 518.271362,458.070618 
	C516.203979,461.677277 514.288208,465.019409 512.076233,468.958191 
	C489.555023,508.313416 467.330048,547.071960 444.874573,586.232544 
	C444.091888,586.093750 442.447632,585.896667 440.851044,585.505188 
	C411.491943,578.305664 384.461670,566.036011 359.905853,548.353577 
	C358.451447,547.306274 356.669434,546.713989 355.039856,545.909973 
	C355.039856,545.909973 355.012390,545.984802 355.253662,545.639954 
	C354.653717,544.856934 353.812500,544.418823 352.971252,543.980652 
	C352.971252,543.980652 352.978485,544.022156 353.021240,543.712341 
	C352.689484,543.277893 352.315002,543.153259 351.940521,543.028625 
	C351.940521,543.028625 351.996552,543.001709 351.951904,542.741577 
	C351.563354,542.345642 351.219452,542.209778 350.875580,542.073914 
	C350.875580,542.073914 350.954773,542.049988 350.867493,541.771790 
	C350.208679,541.268127 349.637177,541.042603 349.065704,540.817078 
	C349.065704,540.817078 349.051300,540.922363 349.074646,540.561462 
	C348.677002,540.129944 348.256073,540.059265 347.835114,539.988586 
z"/>
<path fill="#FEFDFD" opacity="1.000000" stroke="none" 
	d="
M684.943420,490.687866 
	C684.161987,491.529907 683.380554,492.371948 682.130310,493.719208 
	C643.556763,426.797485 605.084717,360.051941 566.140991,292.487976 
	C568.893677,292.487976 570.663696,292.488007 572.433655,292.488007 
	C616.904663,292.488007 661.376587,292.621948 705.845581,292.326843 
	C711.732422,292.287781 714.829895,293.696198 715.392273,299.643890 
	C715.515198,300.943512 716.073181,302.201996 716.660767,304.170166 
	C727.359985,346.950409 726.497192,388.760803 713.781494,430.273712 
	C707.174194,451.844360 697.055908,471.743042 684.943420,490.687866 
z"/>
<path fill="#FEFEFE" opacity="1.000000" stroke="none" 
	d="
M491.311920,592.130737 
	C485.851868,591.773682 480.391815,591.416687 474.114380,591.006226 
	C512.716919,523.695435 551.012878,456.919281 589.813599,389.262909 
	C592.836731,394.502258 595.584045,399.263702 598.663330,404.561737 
	C619.753052,441.137848 640.494507,477.186920 661.304504,513.196350 
	C662.733398,515.668823 663.669189,517.365723 661.106323,520.043701 
	C642.263794,539.732056 620.716919,555.756714 596.369995,567.896729 
	C563.328674,584.371887 528.154541,591.955750 491.311920,592.130737 
z"/>
<path fill="#FEFEFE" opacity="1.000000" stroke="none" 
	d="
M489.818176,265.059204 
	C484.071381,265.059204 478.324554,265.059204 471.644775,265.059204 
	C477.433136,255.215393 482.704407,246.245667 487.980682,237.278885 
	C506.586029,205.659851 525.235107,174.066360 543.729431,142.382523 
	C545.432007,139.465668 546.862854,138.600845 550.329590,139.498154 
	C598.676575,152.012268 638.575745,177.887756 671.488403,215.987793 
	C672.174377,216.756805 672.558899,216.947220 672.943481,217.137634 
	C672.943481,217.137650 672.946411,217.034012 672.860107,217.377472 
	C673.546204,218.470428 674.318604,219.219894 675.090942,219.969376 
	C675.090942,219.969376 675.016418,219.984558 675.047791,220.245667 
	C675.402344,220.671188 675.725586,220.835587 676.048767,221.000000 
	C676.048767,221.000000 675.994446,221.004181 675.990723,221.331879 
	C676.643555,222.129318 677.299988,222.599060 677.956482,223.068787 
	C677.956482,223.068787 677.996887,223.005524 677.837158,223.395386 
	C678.098694,223.885483 678.519836,223.985718 678.941040,224.085953 
	C678.941040,224.085953 678.971375,224.009277 678.646118,224.315018 
	C687.007629,237.346848 695.700073,250.069580 702.081360,264.839661 
	C699.734131,264.839661 697.954285,264.839661 696.174438,264.839661 
	C629.381531,264.839661 562.588623,264.837769 495.795746,264.848877 
	C493.803223,264.849213 491.810699,264.986023 489.818176,265.059204 
z"/>
<path fill="#FFFEFE" opacity="1.000000" stroke="none" 
	d="
M283.080292,430.162354 
	C280.431885,430.162354 277.783508,430.162354 274.497711,430.162354 
	C255.264450,360.469421 263.996582,295.300568 303.717896,233.601852 
	C306.831573,238.750107 309.607056,243.339203 312.711426,248.460663 
	C349.251648,309.088806 385.462982,369.184570 422.109161,430.002014 
	C415.873230,430.002014 410.451324,429.996094 405.029388,430.002991 
	C364.379700,430.054688 323.729980,430.108887 283.080292,430.162354 
z"/>
<path fill="#FEFDFC" opacity="1.000000" stroke="none" 
	d="
M997.953125,810.359131 
	C983.668152,810.753418 969.198914,810.891296 954.248291,811.100586 
	C951.416809,809.154968 948.943176,807.263672 946.738831,805.098145 
	C939.054321,797.549438 931.463013,789.905823 923.400391,781.838257 
	C919.571655,777.885376 916.178955,774.392395 912.786194,770.899414 
	C912.417358,771.120178 912.048523,771.340942 911.679688,771.561707 
	C911.679688,784.603027 911.679688,797.644348 911.679688,811.171326 
	C903.413696,811.171326 895.623840,811.171326 887.833923,811.171326 
	C884.083923,811.171326 880.333923,811.171326 876.107300,811.171326 
	C876.107300,804.553345 876.107300,798.501465 876.139160,791.544434 
	C876.098145,777.207947 876.025269,763.776611 875.952393,750.345276 
	C876.015442,715.452148 876.078796,680.559082 876.141296,645.665955 
	C876.145081,643.550598 876.141724,641.435242 876.141724,639.101685 
	C888.155334,639.101685 899.713013,639.101685 911.865601,639.101685 
	C911.865601,642.477295 911.865601,645.747986 911.866943,649.933655 
	C911.868347,681.482361 911.868347,712.115967 911.868347,744.053528 
	C916.373230,739.321716 919.804199,735.717957 923.235107,732.114258 
	C930.456055,725.022583 937.573792,717.820129 944.979553,710.927124 
	C946.578979,709.438354 949.202881,708.332825 951.376465,708.295227 
	C964.998657,708.059326 978.626953,708.176025 993.645020,708.176025 
	C989.953552,711.930969 986.930176,715.006409 983.649292,718.408936 
	C970.603088,731.496887 957.814331,744.257690 944.324341,757.718201 
	C948.417786,761.540710 952.260742,765.129333 956.392517,768.823853 
	C970.377136,782.654114 984.072937,796.378418 997.953125,810.359131 
z"/>
<path fill="#FEFEFE" opacity="1.000000" stroke="none" 
	d="
M519.810242,768.510742 
	C533.491211,782.230774 547.172180,795.950806 560.798950,810.234619 
	C546.205078,810.920471 531.665344,811.042542 517.125671,811.164551 
	C511.252991,805.563477 505.348969,799.994751 499.518646,794.349915 
	C495.575958,790.532654 491.737213,786.607971 487.452087,782.272461 
	C483.351471,778.199341 479.650696,774.585022 474.964966,770.008789 
	C474.964966,784.601135 474.964966,797.646912 474.964966,811.158936 
	C466.720245,811.158936 458.926605,811.158936 451.132996,811.158936 
	C448.732300,811.113342 446.331573,811.067749 443.058563,811.019165 
	C437.208069,810.215271 441.149017,806.116821 439.683350,803.572388 
	C439.725220,781.301697 439.692596,759.503418 439.736145,737.263184 
	C439.731781,731.925964 439.651184,727.030701 439.570618,722.135376 
	C439.643829,696.711182 439.717438,671.286926 439.789429,645.862732 
	C439.795471,643.726013 439.790222,641.589294 439.790222,639.167358 
	C451.575134,639.167358 463.112915,639.167358 475.199036,639.167358 
	C475.199036,642.451599 475.199036,645.718201 475.191040,649.902527 
	C475.183014,681.528198 475.183014,712.236023 475.183014,744.273254 
	C479.731354,739.516785 483.361786,735.720215 486.992188,731.923645 
	C494.198334,724.846008 501.373749,717.736450 508.643219,710.724487 
	C509.759766,709.647522 511.301147,708.310669 512.660767,708.293884 
	C527.030640,708.117554 541.403625,708.184753 557.217712,708.184753 
	C553.239319,712.189331 550.173035,715.275879 546.669250,718.786133 
	C533.635559,731.883057 521.039307,744.556335 508.200623,757.473511 
	C512.374939,761.442017 516.092590,764.976379 519.810242,768.510742 
z"/>
<path fill="#FEFDFD" opacity="1.000000" stroke="none" 
	d="
M768.915955,804.524780 
	C744.045105,787.704468 741.007996,762.961487 747.096436,743.532593 
	C753.126465,724.290100 767.489380,712.994751 786.356750,708.101746 
	C813.887695,700.962097 838.373962,706.386230 857.730408,728.626404 
	C858.267822,729.243958 858.653992,729.993103 859.484741,731.238892 
	C876.618042,760.762329 866.250671,794.303955 836.044495,807.984924 
	C819.660156,815.405762 802.570496,815.753906 785.363037,811.259216 
	C780.152039,809.898010 775.171875,807.652954 770.085999,805.812744 
	C770.085999,805.812744 770.044067,805.904602 770.105713,805.553162 
	C769.750244,804.976074 769.333130,804.750427 768.915955,804.524780 
M825.975769,747.021667 
	C825.975769,747.021667 826.010254,747.033569 826.127747,746.330139 
	C820.405151,737.447205 811.986145,734.756409 801.973328,735.976196 
	C791.697327,737.227966 783.832764,745.720276 782.402039,756.901978 
	C781.040955,767.539734 786.310913,777.500488 795.052795,780.976257 
	C795.052795,780.976257 795.024719,780.904724 795.154175,781.345032 
	C795.364014,781.611633 795.636536,781.718628 796.688538,782.029785 
	C807.727722,785.733154 818.299866,783.233643 824.704468,775.406128 
	C830.881958,767.856262 831.805481,756.646545 826.909973,747.400391 
	C826.595459,747.262390 826.280945,747.124390 825.975769,747.021667 
z"/>
<path fill="#FFFEFD" opacity="1.000000" stroke="none" 
	d="
M642.034973,679.132690 
	C638.390930,679.132690 634.746826,679.132690 630.827637,679.132690 
	C630.827637,667.976807 630.827637,657.237671 630.827637,646.194763 
	C669.332947,646.194763 707.798462,646.194763 746.861267,646.194763 
	C746.861267,649.484680 746.861267,652.756104 746.863586,656.941833 
	C746.865906,664.781982 746.865906,671.707764 746.865906,679.079834 
	C733.425354,679.079834 720.683167,679.079834 707.501831,679.079834 
	C707.501831,723.232727 707.501831,766.924316 707.501831,811.165833 
	C698.436829,811.165833 689.819153,811.165833 681.201477,811.165833 
	C677.574097,811.165833 673.946777,811.165833 669.831482,811.165833 
	C669.831482,770.736694 669.831482,730.810364 669.829102,689.974731 
	C669.826782,685.810242 669.826782,682.554993 669.826782,679.132690 
	C660.179138,679.132690 651.107056,679.132690 642.034973,679.132690 
z"/>
<path fill="#FEFCFC" opacity="1.000000" stroke="none" 
	d="
M191.294937,806.958496 
	C178.532684,799.245850 173.729950,787.119873 172.423508,772.214722 
	C172.326385,750.359009 172.285263,729.312927 172.244141,708.266785 
	C183.876068,708.266785 195.507965,708.266785 207.844833,708.266785 
	C207.844833,711.733398 207.844833,714.997437 207.846191,719.166748 
	C207.844421,732.561707 207.723999,745.053162 207.899109,757.540405 
	C207.964066,762.172913 208.281738,766.892395 209.270828,771.399597 
	C210.651230,777.689941 213.753052,782.894287 220.978149,783.997620 
	C234.702194,788.379944 245.371658,782.248291 247.033966,768.134033 
	C248.138046,758.759583 247.873444,749.212341 248.013657,739.739258 
	C248.161484,729.752136 248.060104,719.761292 248.080750,709.772095 
	C248.081390,709.456360 248.227112,709.140808 248.385345,708.501160 
	C259.866394,708.501160 271.428802,708.501160 283.709442,708.501160 
	C283.709442,711.737915 283.709442,715.006104 283.716309,719.173218 
	C283.501068,738.216248 283.843079,756.389465 282.908661,774.496826 
	C281.834229,795.316956 270.384247,807.838806 249.860199,811.897461 
	C230.577393,815.710632 211.510483,814.929016 192.900970,808.060425 
	C192.900970,808.060425 192.964294,808.018433 192.883362,807.787659 
	C192.299927,807.357422 191.797424,807.157959 191.294937,806.958496 
z"/>
<path fill="#FEFDFC" opacity="1.000000" stroke="none" 
	d="
M366.248657,803.942139 
	C357.091309,796.804382 349.430511,788.474548 345.030334,776.740356 
	C341.078308,765.080261 341.727264,754.122375 344.833923,743.158630 
	C352.824646,723.871399 366.769470,711.160461 387.203491,706.660889 
	C403.334381,703.108765 418.851349,705.667786 433.475830,714.400696 
	C432.873108,716.091431 432.391052,717.443542 431.562317,719.364197 
	C428.041229,726.258972 424.866791,732.585266 421.672913,738.950317 
	C419.986115,738.123596 418.674469,737.414490 417.311798,736.822815 
	C400.881256,729.689087 383.461945,738.349426 380.347107,755.186523 
	C378.358795,765.934448 384.142670,777.881104 392.938354,781.119141 
	C392.962219,781.093567 392.918640,781.038452 392.817841,781.358398 
	C393.119629,781.846863 393.522217,782.015381 394.183624,782.443848 
	C403.858368,787.008728 412.794525,784.674316 421.676971,780.562317 
	C424.017883,785.071594 426.299561,789.466797 428.687683,794.229187 
	C430.326782,797.880432 431.859436,801.164551 433.582153,804.855896 
	C431.587463,806.029602 429.894043,807.582520 427.931854,808.083923 
	C419.614075,810.209534 411.303009,812.687134 402.827362,813.791321 
	C390.768402,815.362366 379.625702,811.307190 368.937744,806.031860 
	C368.937744,806.031860 368.992828,806.000732 368.911316,805.722046 
	C368.252350,805.199463 367.674896,804.955566 367.097412,804.711670 
	C367.097412,804.711731 367.067078,804.907959 367.136963,804.632324 
	C366.887451,804.218506 366.568054,804.080322 366.248657,803.942139 
z"/>
<path fill="#FBFBFB" opacity="1.000000" stroke="none" 
	d="
M308.995331,811.170532 
	C305.349823,811.170532 301.704315,811.170532 297.734283,811.170532 
	C297.734283,776.812988 297.734283,742.833069 297.734283,708.513550 
	C309.308105,708.513550 320.833740,708.513550 332.992188,708.513550 
	C332.992188,711.725525 332.992188,714.987488 332.991852,719.162109 
	C332.991516,750.285889 332.991516,780.497009 332.991516,811.170532 
	C324.577698,811.170532 316.786530,811.170532 308.995331,811.170532 
z"/>
<path fill="#EB6502" opacity="1.000000" stroke="none" 
	d="
M400.320557,332.924683 
	C412.738220,310.909363 425.391541,289.076996 438.149506,267.305939 
	C462.173431,226.309769 486.257660,185.348938 510.605347,144.200623 
	C516.366455,144.332352 521.839050,144.636856 528.271057,144.994751 
	C488.545837,212.630005 449.140472,279.720673 409.388397,347.401611 
	C406.286621,342.364532 403.445038,337.749939 400.320557,332.924683 
z"/>
<path fill="#EA6503" opacity="1.000000" stroke="none" 
	d="
M491.210327,592.473633 
	C528.154541,591.955750 563.328674,584.371887 596.369995,567.896729 
	C620.716919,555.756714 642.263794,539.732056 661.106323,520.043701 
	C663.669189,517.365723 662.733398,515.668823 661.304504,513.196350 
	C640.494507,477.186920 619.753052,441.137848 598.960815,404.766418 
	C599.734985,403.401703 600.543457,402.368866 601.546753,401.087219 
	C626.118286,443.692352 650.554138,486.062225 675.282471,528.939270 
	C623.677002,582.520386 560.982361,607.246399 485.742462,602.772461 
	C487.748169,599.051270 489.428467,595.933899 491.210327,592.473633 
z"/>
<path fill="#EA6503" opacity="1.000000" stroke="none" 
	d="
M355.025970,546.259888 
	C356.669434,546.713989 358.451447,547.306274 359.905853,548.353577 
	C384.461670,566.036011 411.491943,578.305664 440.851044,585.505188 
	C442.447632,585.896667 444.091888,586.093750 444.874573,586.232544 
	C467.330048,547.071960 489.555023,508.313416 512.009888,469.292267 
	C517.725586,469.029694 523.211426,469.029694 529.761475,469.029694 
	C528.559998,471.403473 527.788574,473.112854 526.861145,474.732971 
	C504.546967,513.714233 482.197021,552.674988 459.957428,591.698669 
	C459.062286,593.269287 459.182373,595.418579 458.915131,597.648438 
	C459.000824,597.998657 459.020081,597.975525 459.020081,597.975586 
	C456.585144,597.636719 454.090942,597.529663 451.724182,596.924316 
	C415.577850,587.680054 383.033234,571.485046 355.025970,546.259888 
M447.500702,586.875061 
	C447.773834,586.684570 448.046936,586.494141 448.320068,586.303650 
	C447.906006,586.351868 447.491913,586.400085 447.500702,586.875061 
z"/>
<path fill="#EC6501" opacity="1.000000" stroke="none" 
	d="
M489.692261,265.366852 
	C491.810699,264.986023 493.803223,264.849213 495.795746,264.848877 
	C562.588623,264.837769 629.381531,264.839661 696.174438,264.839661 
	C697.954285,264.839661 699.734131,264.839661 702.081360,264.839661 
	C695.700073,250.069580 687.007629,237.346848 678.607910,224.330383 
	C680.936462,226.128769 683.393677,227.948090 684.951538,230.350601 
	C694.166382,244.561646 703.177368,258.904938 712.232361,273.219269 
	C712.645142,273.871796 712.821594,274.673798 713.277588,275.839294 
	C636.657776,275.839294 560.511353,275.839294 483.606171,275.839294 
	C485.762848,272.161224 487.664612,268.917847 489.692261,265.366852 
z"/>
<path fill="#E46202" opacity="1.000000" stroke="none" 
	d="
M283.136230,430.530212 
	C323.729980,430.108887 364.379700,430.054688 405.029388,430.002991 
	C410.451324,429.996094 415.873230,430.002014 422.109161,430.002014 
	C385.462982,369.184570 349.251648,309.088806 313.005432,248.662689 
	C313.631744,247.386597 314.292969,246.440826 315.278290,245.031479 
	C354.919159,310.815125 394.041382,375.738007 433.535583,441.278259 
	C384.013611,441.278259 335.310486,441.278259 286.278687,441.278259 
	C285.264374,437.867065 284.228241,434.382538 283.136230,430.530212 
z"/>
<path fill="#EA6502" opacity="1.000000" stroke="none" 
	d="
M685.218750,490.917633 
	C697.055908,471.743042 707.174194,451.844360 713.781494,430.273712 
	C726.497192,388.760803 727.359985,346.950409 716.906494,304.454132 
	C719.405640,304.047394 721.888855,304.047394 724.276550,304.047394 
	C748.502747,355.587311 731.671265,465.678711 693.493530,504.872070 
	C690.797485,500.246429 688.145752,495.696930 685.218750,490.917633 
z"/>
<path fill="#EC6500" opacity="1.000000" stroke="none" 
	d="
M681.199463,811.614868 
	C689.819153,811.165833 698.436829,811.165833 707.501831,811.165833 
	C707.501831,766.924316 707.501831,723.232727 707.501831,679.079834 
	C720.683167,679.079834 733.425354,679.079834 746.865906,679.079834 
	C746.865906,671.707764 746.865906,664.781982 746.957886,657.389832 
	C750.518982,656.923462 753.988098,656.923462 757.787598,656.923462 
	C757.787598,667.949585 757.787598,678.656189 757.787598,689.857727 
	C744.991516,689.857727 732.270569,689.857727 719.124878,689.857727 
	C719.124878,734.015808 719.124878,777.685242 719.124878,821.676758 
	C706.466064,821.676758 694.233154,821.676758 681.197449,821.676758 
	C681.197449,818.551880 681.197449,815.307922 681.199463,811.614868 
z"/>
<path fill="#EB6502" opacity="1.000000" stroke="none" 
	d="
M192.798248,808.408325 
	C211.510483,814.929016 230.577393,815.710632 249.860199,811.897461 
	C270.384247,807.838806 281.834229,795.316956 282.908661,774.496826 
	C283.843079,756.389465 283.501068,738.216248 283.834778,719.628906 
	C287.411377,719.185608 290.876312,719.185608 294.634705,719.185608 
	C294.789062,720.615601 295.011292,721.718445 295.011841,722.821411 
	C295.020935,741.617004 295.066986,760.413025 294.938477,779.207825 
	C294.911346,783.176697 294.510101,787.194214 293.788422,791.098206 
	C290.938599,806.514771 282.311768,817.077759 266.979736,821.357361 
	C248.135208,826.617493 229.202698,826.599121 210.442230,820.912354 
	C203.353760,818.763611 197.029419,815.114746 192.798248,808.408325 
z"/>
<path fill="#FFFFFF" opacity="1.000000" stroke="none" 
	d="
M572.095581,768.660889 
	C568.487976,768.495789 564.880371,768.330750 561.037292,768.154907 
	C561.037292,758.105774 561.037292,748.211914 561.037292,738.044312 
	C582.295715,738.044312 603.478455,738.044312 625.225098,738.044312 
	C625.225098,741.356567 625.225098,744.626953 625.209473,748.817261 
	C625.193909,755.836853 625.193909,761.936523 625.193909,768.316956 
	C621.311768,768.316956 618.165527,768.296875 615.019531,768.320374 
	C600.711487,768.427185 586.403564,768.546265 572.095581,768.660889 
z"/>
<path fill="#EA6503" opacity="1.000000" stroke="none" 
	d="
M770.122681,806.158569 
	C775.171875,807.652954 780.152039,809.898010 785.363037,811.259216 
	C802.570496,815.753906 819.660156,815.405762 836.044495,807.984924 
	C866.250671,794.303955 876.618042,760.762329 859.725647,731.453857 
	C863.496460,734.917358 867.593262,738.551147 871.223389,742.603027 
	C873.047424,744.639038 874.022827,747.435364 875.667236,750.116577 
	C876.025269,763.776611 876.098145,777.207947 876.068726,791.045898 
	C867.008362,808.772583 853.118958,819.913391 833.891602,823.368347 
	C810.189392,827.627380 788.130249,824.481995 770.122681,806.158569 
z"/>
<path fill="#EB6603" opacity="1.000000" stroke="none" 
	d="
M172.121674,707.898193 
	C172.285263,729.312927 172.326385,750.359009 172.272888,771.797302 
	C166.500763,784.211670 159.991623,795.678711 149.810379,804.566772 
	C145.993774,807.898499 141.941025,810.959778 137.977859,814.491333 
	C128.419586,813.871826 118.879395,812.905334 109.339188,811.938782 
	C109.328270,811.468628 109.317345,810.998474 109.306419,810.528259 
	C110.223709,810.078552 111.112671,809.555176 112.062431,809.189880 
	C143.366562,797.150330 160.242630,773.715027 164.997696,741.183838 
	C168.407608,717.855164 163.652603,696.152832 149.967361,676.320251 
	C154.742279,681.315674 159.971191,686.331665 164.109680,692.126465 
	C167.426224,696.770447 169.418976,702.359802 172.121674,707.898193 
z"/>
<path fill="#EA6503" opacity="1.000000" stroke="none" 
	d="
M52.208248,843.983643 
	C61.194771,836.088806 72.045631,835.209717 83.027489,837.570190 
	C91.073486,839.299683 98.845924,842.469849 106.588539,845.398987 
	C115.637154,848.822205 124.645767,852.155273 134.514496,852.000793 
	C149.549835,851.765381 160.818466,844.721252 169.017303,832.515320 
	C169.956818,831.116638 169.716980,828.559448 169.293808,826.706116 
	C168.786484,824.484192 167.495346,822.441223 166.472748,819.948486 
	C167.459793,818.110779 168.517761,816.645325 170.086227,814.472717 
	C174.314621,823.557007 178.064606,831.145508 181.286392,838.952026 
	C181.890533,840.415955 180.862274,843.088867 179.775650,844.632507 
	C168.813980,860.204651 152.185211,866.290405 133.325027,861.361572 
	C126.768715,859.648254 120.516212,856.801575 114.058319,854.674805 
	C106.977318,852.342773 99.949402,849.523682 92.665131,848.209534 
	C81.117470,846.126404 70.161980,848.293091 60.684879,856.480225 
	C57.797661,852.177185 55.129684,848.200867 52.208248,843.983643 
z"/>
<path fill="#FEFCFC" opacity="1.000000" stroke="none" 
	d="
M308.466309,686.039001 
	C301.252747,682.174805 295.703827,677.005249 294.880157,668.284912 
	C293.921631,658.136780 299.532532,649.235718 308.830475,645.991882 
	C317.982483,642.798950 327.639038,646.123779 333.324432,654.445190 
	C333.979279,655.403625 334.541901,656.425110 335.401367,658.109375 
	C338.334534,670.560547 334.698700,679.647766 325.359131,684.630920 
	C319.920441,687.532776 314.244507,687.338745 308.466309,686.039001 
z"/>
<path fill="#EC6501" opacity="1.000000" stroke="none" 
	d="
M308.997864,811.621948 
	C316.786530,811.170532 324.577698,811.170532 332.991516,811.170532 
	C332.991516,780.497009 332.991516,750.285889 333.069885,719.628113 
	C336.583191,719.181519 340.018158,719.181519 344.482208,719.181519 
	C344.482208,727.122986 344.482208,734.754456 344.658081,742.772217 
	C341.727264,754.122375 341.078308,765.080261 344.896118,776.391113 
	C344.707153,786.194336 344.499847,795.633484 344.374237,805.073608 
	C344.301727,810.524231 344.361084,815.976562 344.361084,821.712036 
	C332.548401,821.712036 321.145691,821.712036 309.000366,821.712036 
	C309.000366,818.558594 309.000366,815.315979 308.997864,811.621948 
z"/>
<path fill="#EB6704" opacity="1.000000" stroke="none" 
	d="
M392.914520,781.144775 
	C384.142670,777.881104 378.358795,765.934448 380.347107,755.186523 
	C383.461945,738.349426 400.881256,729.689087 417.311798,736.822815 
	C418.674469,737.414490 419.986115,738.123596 421.672913,738.950317 
	C424.866791,732.585266 428.041229,726.258972 431.518250,719.726562 
	C434.185730,720.298340 436.550629,721.076233 439.243042,721.994751 
	C439.651184,727.030701 439.731781,731.925964 439.563080,737.569458 
	C437.248444,742.055542 435.183075,745.793579 433.024811,749.699707 
	C431.268188,748.898926 429.831696,748.103027 428.303375,747.570496 
	C419.056427,744.348694 409.966400,743.898865 401.708527,750.128967 
	C393.336456,756.445374 390.507721,765.103027 391.950867,775.312378 
	C392.226593,777.262939 392.591003,779.200989 392.914520,781.144775 
z"/>
<path fill="#E86606" opacity="1.000000" stroke="none" 
	d="
M486.957672,731.460632 
	C483.361786,735.720215 479.731354,739.516785 475.183014,744.273254 
	C475.183014,712.236023 475.183014,681.528198 475.276184,650.354126 
	C478.993439,649.888000 482.617493,649.888000 486.923126,649.888000 
	C486.923126,677.233032 486.923126,704.115295 486.957672,731.460632 
z"/>
<path fill="#E96503" opacity="1.000000" stroke="none" 
	d="
M520.050537,768.231201 
	C516.092590,764.976379 512.374939,761.442017 508.200623,757.473511 
	C521.039307,744.556335 533.635559,731.883057 546.542847,719.103394 
	C553.646484,718.997070 560.439026,718.997070 568.845276,718.997070 
	C551.982544,735.998779 536.136719,751.975220 520.050537,768.231201 
z"/>
<path fill="#ED6500" opacity="1.000000" stroke="none" 
	d="
M923.191650,731.640015 
	C919.804199,735.717957 916.373230,739.321716 911.868347,744.053528 
	C911.868347,712.115967 911.868347,681.482361 911.959717,650.381531 
	C915.515869,649.914368 918.980591,649.914368 923.148193,649.914368 
	C923.148193,677.203003 923.148193,704.184326 923.191650,731.640015 
z"/>
<path fill="#E96809" opacity="1.000000" stroke="none" 
	d="
M572.107239,769.076294 
	C586.403564,768.546265 600.711487,768.427185 615.019531,768.320374 
	C618.165527,768.296875 621.311768,768.316956 625.193909,768.316956 
	C625.193909,761.936523 625.193909,755.836853 625.291016,749.264038 
	C629.014465,748.790955 632.640808,748.790955 636.544678,748.790955 
	C636.544678,759.057190 636.544678,768.800415 636.544678,778.912292 
	C615.190857,778.912292 593.984985,778.912292 572.118896,778.912292 
	C572.118896,775.713928 572.118896,772.602844 572.107239,769.076294 
z"/>
<path fill="#E96503" opacity="1.000000" stroke="none" 
	d="
M368.862122,806.379150 
	C379.625702,811.307190 390.768402,815.362366 402.827362,813.791321 
	C411.303009,812.687134 419.614075,810.209534 427.931854,808.083923 
	C429.894043,807.582520 431.587463,806.029602 433.582153,804.855896 
	C431.859436,801.164551 430.326782,797.880432 428.971191,793.975159 
	C430.456818,792.817688 431.765350,792.281433 433.219360,791.685486 
	C435.440399,795.981689 437.524628,800.013245 439.608887,804.044800 
	C441.149017,806.116821 437.208069,810.215271 442.615326,811.089722 
	C443.626740,812.527954 444.209045,813.892700 444.787964,815.249451 
	C428.692627,831.772827 387.108307,827.099670 368.862122,806.379150 
z"/>
<path fill="#E96604" opacity="1.000000" stroke="none" 
	d="
M451.137115,811.609131 
	C458.926605,811.158936 466.720245,811.158936 474.964966,811.158936 
	C474.964966,797.646912 474.964966,784.601135 474.964966,770.008789 
	C479.650696,774.585022 483.351471,778.199341 487.127380,782.038391 
	C487.202576,795.229248 487.202576,808.195251 487.202576,821.582520 
	C475.048370,821.582520 463.494507,821.582520 451.141235,821.582520 
	C451.141235,818.556152 451.141235,815.307739 451.137115,811.609131 
z"/>
<path fill="#ED6500" opacity="1.000000" stroke="none" 
	d="
M887.836853,811.624268 
	C895.623840,811.171326 903.413696,811.171326 911.679688,811.171326 
	C911.679688,797.644348 911.679688,784.603027 911.679688,771.561707 
	C912.048523,771.340942 912.417358,771.120178 912.786194,770.899414 
	C916.178955,774.392395 919.571655,777.885376 923.112549,781.693726 
	C923.260742,795.123047 923.260742,808.236938 923.260742,821.674072 
	C911.423523,821.674072 900.030457,821.674072 887.839783,821.674072 
	C887.839783,818.551941 887.839783,815.314514 887.836853,811.624268 
z"/>
<path fill="#EB6502" opacity="1.000000" stroke="none" 
	d="
M220.937073,783.594055 
	C213.753052,782.894287 210.651230,777.689941 209.270828,771.399597 
	C208.281738,766.892395 207.964066,762.172913 207.899109,757.540405 
	C207.723999,745.053162 207.844421,732.561707 207.945068,719.627319 
	C211.509155,719.182617 214.975739,719.182617 219.123413,719.182617 
	C219.123413,721.513306 219.099976,723.444458 219.127045,725.374939 
	C219.372162,742.853271 219.598755,760.331909 219.918594,777.808899 
	C219.951523,779.608154 220.556458,781.396851 220.937073,783.594055 
z"/>
<path fill="#EA6502" opacity="1.000000" stroke="none" 
	d="
M308.601196,686.384277 
	C314.244507,687.338745 319.920441,687.532776 325.359131,684.630920 
	C334.698700,679.647766 338.334534,670.560547 335.564880,658.377808 
	C343.410034,661.083801 348.132050,668.144714 348.132202,676.881714 
	C348.132355,685.653015 342.798889,693.462952 334.679230,696.581421 
	C326.520477,699.714722 317.483337,697.491150 311.564850,690.800293 
	C310.477539,689.571045 309.671783,688.092834 308.601196,686.384277 
z"/>
<path fill="#EC6500" opacity="1.000000" stroke="none" 
	d="
M517.265930,811.449524 
	C531.665344,811.042542 546.205078,810.920471 561.057861,810.477173 
	C564.992432,813.925903 568.613892,817.695923 572.742126,821.993530 
	C557.883728,821.993530 543.535400,822.076965 529.191284,821.868042 
	C527.711182,821.846497 526.100159,820.253906 524.822998,819.090515 
	C522.251099,816.747803 519.867493,814.198486 517.265930,811.449524 
z"/>
<path fill="#EA6502" opacity="1.000000" stroke="none" 
	d="
M642.036621,679.585327 
	C651.107056,679.132690 660.179138,679.132690 669.826782,679.132690 
	C669.826782,682.554993 669.826782,685.810242 669.733521,689.512329 
	C660.701843,689.959167 651.763428,689.959167 642.038330,689.959167 
	C642.038330,686.501709 642.038330,683.269836 642.036621,679.585327 
z"/>
<path fill="#E96809" opacity="1.000000" stroke="none" 
	d="
M38.102776,802.213379 
	C47.097923,805.635254 56.137409,809.399414 64.742149,812.982483 
	C62.878483,813.806458 60.103760,815.033325 57.075344,816.334229 
	C50.596809,811.790649 44.371967,807.173096 38.102776,802.213379 
z"/>
<path fill="#EA6503" opacity="1.000000" stroke="none" 
	d="
M352.889221,544.326599 
	C353.812500,544.418823 354.653717,544.856934 355.289642,545.622803 
	C354.325256,545.524475 353.566223,545.098511 352.889221,544.326599 
z"/>
<path fill="#EC6501" opacity="1.000000" stroke="none" 
	d="
M675.189941,219.635956 
	C674.318604,219.219894 673.546204,218.470428 672.808960,217.385559 
	C673.658997,217.800964 674.473999,218.551758 675.189941,219.635956 
z"/>
<path fill="#EC6501" opacity="1.000000" stroke="none" 
	d="
M678.021362,222.725723 
	C677.299988,222.599060 676.643555,222.129318 675.996216,221.305176 
	C676.698975,221.428085 677.392639,221.905380 678.021362,222.725723 
z"/>
<path fill="#EB6502" opacity="1.000000" stroke="none" 
	d="
M191.415466,807.243591 
	C191.797424,807.157959 192.299927,807.357422 192.890808,807.824951 
	C192.498154,807.904907 192.017090,807.716797 191.415466,807.243591 
z"/>
<path fill="#EA6503" opacity="1.000000" stroke="none" 
	d="
M458.990692,598.009521 
	C459.443268,598.195618 459.905975,598.370789 460.368683,598.546021 
	C459.942413,598.542725 459.516144,598.539368 459.054993,598.255798 
	C459.020081,597.975525 459.000824,597.998657 458.990692,598.009521 
z"/>
<path fill="#EA6503" opacity="1.000000" stroke="none" 
	d="
M349.142578,541.151184 
	C349.637177,541.042603 350.208679,541.268127 350.866333,541.813110 
	C350.374847,541.916870 349.797150,541.701111 349.142578,541.151184 
z"/>
<path fill="#E96503" opacity="1.000000" stroke="none" 
	d="
M367.201538,805.040527 
	C367.674896,804.955566 368.252350,805.199463 368.907990,805.753479 
	C368.425995,805.832275 367.865814,805.600830 367.201538,805.040527 
z"/>
<path fill="#EB6603" opacity="1.000000" stroke="none" 
	d="
M150.041214,675.670715 
	C149.661636,675.769958 149.287659,675.516785 148.909592,674.896606 
	C149.285950,674.792480 149.666367,675.055420 150.041214,675.670715 
z"/>
<path fill="#EA6503" opacity="1.000000" stroke="none" 
	d="
M768.963135,804.875122 
	C769.333130,804.750427 769.750244,804.976074 770.155518,805.561523 
	C769.765869,805.689392 769.388062,805.457458 768.963135,804.875122 
z"/>
<path fill="#EA6503" opacity="1.000000" stroke="none" 
	d="
M347.980408,540.241455 
	C348.256073,540.059265 348.677002,540.129944 349.127319,540.554443 
	C348.813019,540.770325 348.469360,540.632324 347.980408,540.241455 
z"/>
<path fill="#E96503" opacity="1.000000" stroke="none" 
	d="
M366.332581,804.178406 
	C366.568054,804.080322 366.887451,804.218506 367.236206,804.630066 
	C366.982574,804.740479 366.699524,804.577576 366.332581,804.178406 
z"/>
<path fill="#EC6501" opacity="1.000000" stroke="none" 
	d="
M678.973022,223.763092 
	C678.519836,223.985718 678.098694,223.885483 677.804321,223.413498 
	C678.289124,223.174576 678.647034,223.307404 678.973022,223.763092 
z"/>
<path fill="#E96809" opacity="1.000000" stroke="none" 
	d="
M36.782661,801.024719 
	C37.103466,800.870605 37.575985,801.025208 38.068634,801.562866 
	C37.703964,801.741699 37.319168,801.537598 36.782661,801.024719 
z"/>
<path fill="#EC6501" opacity="1.000000" stroke="none" 
	d="
M672.859863,216.794220 
	C672.558899,216.947220 672.174377,216.756805 671.661743,216.243011 
	C671.947876,216.096695 672.362061,216.273743 672.859863,216.794220 
z"/>
<path fill="#EA6503" opacity="1.000000" stroke="none" 
	d="
M350.838989,542.416931 
	C351.219452,542.209778 351.563354,542.345642 351.943726,542.771606 
	C351.587616,542.961121 351.195007,542.860535 350.838989,542.416931 
z"/>
<path fill="#EA6503" opacity="1.000000" stroke="none" 
	d="
M351.890320,543.370239 
	C352.315002,543.153259 352.689484,543.277893 353.042023,543.715759 
	C352.626770,543.923279 352.233429,543.817505 351.890320,543.370239 
z"/>
<path fill="#EC6501" opacity="1.000000" stroke="none" 
	d="
M676.104736,220.667725 
	C675.725586,220.835587 675.402344,220.671188 675.062927,220.210754 
	C675.418030,220.054993 675.789429,220.195221 676.104736,220.667725 
z"/>
<path fill="#010101" opacity="1.000000" stroke="none" 
	d="
M115.727768,696.052307 
	C129.365112,714.034119 128.316162,747.323547 113.469559,764.149048 
	C104.070915,774.800415 91.581001,777.028442 78.415924,775.487610 
	C72.331612,774.775513 66.510017,771.818726 60.406544,769.261169 
	C53.827007,755.123291 52.353325,740.973389 55.033405,726.354309 
	C58.449642,707.719666 70.360870,695.102112 87.486916,692.364807 
	C97.175095,690.816406 106.690987,691.938293 115.727768,696.052307 
z"/>
<path fill="#EB6603" opacity="1.000000" stroke="none" 
	d="
M115.627914,695.744385 
	C106.690987,691.938293 97.175095,690.816406 87.486916,692.364807 
	C70.360870,695.102112 58.449642,707.719666 55.033405,726.354309 
	C52.353325,740.973389 53.827007,755.123291 60.154095,769.056641 
	C53.891327,765.889404 49.826431,760.380432 47.300823,753.980164 
	C40.202663,735.992188 40.168922,718.134338 48.960220,700.509338 
	C62.326130,673.713074 103.692276,676.082397 115.627914,695.744385 
z"/>
<path fill="#050403" opacity="1.000000" stroke="none" 
	d="
M439.683380,803.572388 
	C437.524628,800.013245 435.440399,795.981689 433.219360,791.685486 
	C431.765350,792.281433 430.456818,792.817688 428.864746,793.607971 
	C426.299561,789.466797 424.017883,785.071594 421.676971,780.562317 
	C412.794525,784.674316 403.858368,787.008728 394.142609,782.148682 
	C393.534729,781.408569 393.226685,781.223511 392.918640,781.038452 
	C392.918640,781.038452 392.962219,781.093567 392.938354,781.119141 
	C392.591003,779.200989 392.226593,777.262939 391.950867,775.312378 
	C390.507721,765.103027 393.336456,756.445374 401.708527,750.128967 
	C409.966400,743.898865 419.056427,744.348694 428.303375,747.570496 
	C429.831696,748.103027 431.268188,748.898926 433.024811,749.699707 
	C435.183075,745.793579 437.248444,742.055542 439.486877,738.011353 
	C439.692596,759.503418 439.725220,781.301697 439.683380,803.572388 
z"/>
<path fill="#030302" opacity="1.000000" stroke="none" 
	d="
M826.963501,747.987305 
	C831.805481,756.646545 830.881958,767.856262 824.704468,775.406128 
	C818.299866,783.233643 807.727722,785.733154 796.302246,781.564148 
	C795.618835,781.033936 795.321777,780.969299 795.024719,780.904724 
	C795.024719,780.904724 795.052795,780.976257 795.203491,780.537109 
	C795.076721,778.801575 794.792236,777.506653 794.522888,776.208557 
	C791.084656,759.637512 802.726135,745.981567 819.631836,746.751343 
	C821.757874,746.848083 823.884094,746.939575 826.010254,747.033569 
	C826.010254,747.033569 825.975769,747.021667 825.899536,747.304810 
	C826.203369,747.721069 826.583435,747.854187 826.963501,747.987305 
z"/>
<path fill="#EB6704" opacity="1.000000" stroke="none" 
	d="
M826.068970,746.681885 
	C823.884094,746.939575 821.757874,746.848083 819.631836,746.751343 
	C802.726135,745.981567 791.084656,759.637512 794.522888,776.208557 
	C794.792236,777.506653 795.076721,778.801575 795.234802,780.514832 
	C786.310913,777.500488 781.040955,767.539734 782.402039,756.901978 
	C783.832764,745.720276 791.697327,737.227966 801.973328,735.976196 
	C811.986145,734.756409 820.405151,737.447205 826.068970,746.681885 
z"/>
<path fill="#EB6704" opacity="1.000000" stroke="none" 
	d="
M795.089478,781.124878 
	C795.321777,780.969299 795.618835,781.033936 795.943787,781.382324 
	C795.636536,781.718628 795.364014,781.611633 795.089478,781.124878 
z"/>
<path fill="#EB6704" opacity="1.000000" stroke="none" 
	d="
M826.936768,747.693848 
	C826.583435,747.854187 826.203369,747.721069 825.894897,747.287231 
	C826.280945,747.124390 826.595459,747.262390 826.936768,747.693848 
z"/>
<path fill="#EB6704" opacity="1.000000" stroke="none" 
	d="
M392.817841,781.358398 
	C393.226685,781.223511 393.534729,781.408569 393.883820,781.888733 
	C393.522217,782.015381 393.119629,781.846863 392.817841,781.358398 
z"/>
<path fill="#FFFFFE" opacity="1.000000" stroke="none" 
	d="
M447.289276,586.661682 
	C447.491913,586.400085 447.906006,586.351868 448.320068,586.303650 
	C448.046936,586.494141 447.773834,586.684570 447.289276,586.661682 
z"/>
</svg>